<?xml version="1.0" encoding="UTF-8" standalone="no"?>
<!-- Created with Inkscape (http://www.inkscape.org/) -->

<svg
   xmlns:dc="http://purl.org/dc/elements/1.1/"
   xmlns:cc="http://creativecommons.org/ns#"
   xmlns:rdf="http://www.w3.org/1999/02/22-rdf-syntax-ns#"
   xmlns:svg="http://www.w3.org/2000/svg"
   xmlns="http://www.w3.org/2000/svg"
   xmlns:sodipodi="http://sodipodi.sourceforge.net/DTD/sodipodi-0.dtd"
   xmlns:inkscape="http://www.inkscape.org/namespaces/inkscape"
   width="63.999996"
   height="64"
   viewBox="0 0 63.999998 64"
   id="svg2"
   version="1.1"
   inkscape:version="0.91 r13725"
   inkscape:export-filename="/home/gpegeot/Documents/tenbucks/data/icon-64.png"
   inkscape:export-xdpi="90.000008"
   inkscape:export-ydpi="90.000008"
   sodipodi:docname="logo.svg">
  <defs
     id="defs4" />
  <sodipodi:namedview
     id="base"
     pagecolor="#ffffff"
     bordercolor="#666666"
     borderopacity="1.0"
     inkscape:pageopacity="0.0"
     inkscape:pageshadow="2"
     inkscape:zoom="7.7726508"
     inkscape:cx="-0.43556096"
     inkscape:cy="33.187185"
     inkscape:document-units="px"
     inkscape:current-layer="layer1"
     showgrid="false"
     fit-margin-top="0"
     fit-margin-left="0"
     fit-margin-right="0"
     fit-margin-bottom="0"
     units="px"
     inkscape:window-width="1920"
     inkscape:window-height="1016"
     inkscape:window-x="0"
     inkscape:window-y="27"
     inkscape:window-maximized="1" />
  <metadata
     id="metadata7">
    <rdf:RDF>
      <cc:Work
         rdf:about="">
        <dc:format>image/svg+xml</dc:format>
        <dc:type
           rdf:resource="http://purl.org/dc/dcmitype/StillImage" />
        <dc:title></dc:title>
      </cc:Work>
    </rdf:RDF>
  </metadata>
  <g
     inkscape:label="Calque 1"
     inkscape:groupmode="layer"
     id="layer1"
     transform="translate(57.164286,-567.41219)">
    <g
       id="g3337"
       transform="matrix(0.08174735,0,0,0.08174735,-59.575835,575.08009)">
      <path
         id="path3339"
         d="m 118.5,112.6 46.3,0 0,75.4 94.7,0 -7.1,59.8 -87.5,0 0,187.2 c 0,20.9 3.8,35.5 11.4,43.8 7.6,8.3 19.3,12.5 35.2,12.5 15.9,0 31.9,-5 48,-14.9 l 21.4,54.8 c -23.9,16.5 -54,24.8 -90.6,24.8 -21.4,0 -39.4,-2.7 -54.1,-8.2 -14.7,-5.4 -25.6,-11.5 -32.7,-18.2 C 96.4,523 90.9,513.2 87.1,500.4 83.3,487.6 81.2,477.5 80.7,470.2 80.2,462.8 80,452 80,437.8 l 0,-190 -50.5,0 7.1,-52 C 58.9,194 75.8,186 87.1,172 98.5,158 109,138.2 118.5,112.6 Z"
         inkscape:connector-curvature="0" />
      <path
         id="path3341"
         d="m 339.1,524.7 0,-408.6 c 0,-10.9 -5.9,-16.6 -17.8,-17.1 l -24.9,-1.4 0,-59 125.3,0 0,168.7 c 21.4,-19.9 50.1,-29.9 86.1,-29.9 44.6,0 80,15.1 106.1,45.2 26.1,30.1 39.1,72.5 39.1,127 0,137.1 -57.4,205.7 -172.2,205.7 -24.7,0 -50.7,-3 -77.9,-8.9 -27.4,-5.9 -48.6,-13.2 -63.8,-21.7 z m 82.6,-230.6 0,184.3 c 18,9.5 38.9,14.2 62.6,14.2 54.1,0 81.1,-43.9 81.1,-131.7 0,-80.2 -26.6,-120.3 -79.7,-120.3 -17.1,0 -32,5 -44.8,14.9 -12.8,10.1 -19.2,22.9 -19.2,38.6 z"
         inkscape:connector-curvature="0" />
      <path
         id="path3343"
         d="m 760.4,556.7 c -16.6,0 -29.4,-4.6 -38.4,-13.9 -9,-9.3 -13.5,-21.4 -13.5,-36.3 0,-14.9 4.6,-27.3 13.9,-37 9.3,-9.7 21.8,-14.6 37.7,-14.6 15.9,0 28.6,4.6 38.1,13.9 9.5,9.3 14.2,21.4 14.2,36.3 0,14.9 -4.5,27.3 -13.5,37 -9,9.7 -21.8,14.6 -38.5,14.6 z"
         inkscape:connector-curvature="0" />
    </g>
  </g>
</svg>
